<svg xmlns="http://www.w3.org/2000/svg" xmlns:xlink="http://www.w3.org/1999/xlink" width="348" height="244.969" viewBox="0 0 348 244.969">
  <metadata><?xpacket begin="﻿" id="W5M0MpCehiHzreSzNTczkc9d"?>
<x:xmpmeta xmlns:x="adobe:ns:meta/" x:xmptk="Adobe XMP Core 5.6-c142 79.160924, 2017/07/13-01:06:39        ">
   <rdf:RDF xmlns:rdf="http://www.w3.org/1999/02/22-rdf-syntax-ns#">
      <rdf:Description rdf:about=""/>
   </rdf:RDF>
</x:xmpmeta>
                                                                                                    
                                                                                                    
                                                                                                    
                                                                                                    
                                                                                                    
                                                                                                    
                                                                                                    
                                                                                                    
                                                                                                    
                                                                                                    
                                                                                                    
                                                                                                    
                                                                                                    
                                                                                                    
                                                                                                    
                                                                                                    
                                                                                                    
                                                                                                    
                                                                                                    
                                                                                                    
                           
<?xpacket end="w"?></metadata>
<defs>
    <style>
      .cls-1 {
        fill: #0c0c0c;
        fill-rule: evenodd;
        filter: url(#filter);
      }
    </style>
    <filter id="filter" x="153" y="148.031" width="348" height="244.969" filterUnits="userSpaceOnUse">
      <feFlood result="flood" flood-color="#9a2f25"/>
      <feComposite result="composite" operator="in" in2="SourceGraphic"/>
      <feBlend result="blend" in2="SourceGraphic"/>
    </filter>
  </defs>
  <path class="cls-1" d="M500.987,213.74c0.691,35.742-30.155,66.452-65.914,65.693-35.609.73-66.409-29.91-65.774-65.688-0.686-35.783,30.128-66.577,65.843-65.727C470.881,147.2,501.724,178,500.987,213.74Zm-125.46-.016c-0.63,32.6,27.311,59.954,59.956,59.955,32.928,0,60.091-27.586,60.1-59.963,0-32.74-27.613-60.5-60.066-59.85C403.293,153.182,374.883,180.749,375.527,213.724ZM406.51,314.237c0-7.7-.015-15.393.011-23.09a4.491,4.491,0,0,0-2.578-4.444,2.215,2.215,0,0,1-.816-0.516,1.976,1.976,0,0,1-.468-1.143,1.23,1.23,0,0,1,.723-0.776c2.919-1.171,5.857-2.292,8.785-3.441a0.717,0.717,0,0,1,1.1.77c-0.058,2.548-.179,5.1-0.185,7.644q-0.042,16.605-.028,33.211c0,1.1.145,1.231,1.248,1.293a5.5,5.5,0,0,0,3.356-.867,7.2,7.2,0,0,0,1.386-1.02c2.612-2.757,5.194-5.544,7.785-8.321a1.045,1.045,0,0,0,.089-0.121c0.842-1.2.63-1.682-.851-1.9-0.766-.114-1.536-0.205-2.305-0.3a1.012,1.012,0,0,1-.988-1.23,0.945,0.945,0,0,1,1.049-.986c4.428-.125,8.854-0.293,13.28-0.457a16.248,16.248,0,0,0,1.868-.171,0.713,0.713,0,0,1,.9.8c0.03,0.525.174,1.148-.595,1.324a13.955,13.955,0,0,1-1.4.27,9.9,9.9,0,0,0-5.188,2.184c-2.4,2-4.745,4.065-7.084,6.136-0.972.862-1.875,1.8-2.8,2.722-0.785.785-.851,1.221-0.132,2.067q4.443,5.231,8.947,10.407c1.348,1.545,2.816,2.984,4.171,4.522a8.928,8.928,0,0,0,5.9,2.92c1.063,0.13,1.322.4,1.277,1.241a0.865,0.865,0,0,1-1.076.98c-3.453-.067-6.907-0.16-10.361-0.175-2.051-.009-4.1.108-6.155,0.172a0.885,0.885,0,0,1-1.1-.979,0.908,0.908,0,0,1,.817-1.18c0.793-.1,1.585-0.228,2.366-0.4,1.084-.233,1.271-0.684.688-1.648a8.993,8.993,0,0,0-.887-1.206q-4.822-5.6-9.658-11.187a3.792,3.792,0,0,0-3.489-1.327,1.028,1.028,0,0,0-1,.935,1.137,1.137,0,0,0-.034.222c0.044,3.9.031,7.792,0.164,11.684,0.055,1.582.787,2.241,2.35,2.573a23.019,23.019,0,0,0,2.519.38,0.845,0.845,0,0,1,.763,1.127,0.883,0.883,0,0,1-.981,1.025c-3.428-.1-6.857-0.177-10.286-0.195-1.926-.01-3.854.079-5.778,0.189a0.856,0.856,0,0,1-1.036-.872,0.975,0.975,0,0,1,.8-1.264c0.837-.145,1.677-0.275,2.516-0.408a2.484,2.484,0,0,0,2.206-2.3,11.928,11.928,0,0,0,.169-1.787Q406.52,325.783,406.51,314.237Zm-157.176,3.808c0-7.172.015-14.343-.014-21.515a36.571,36.571,0,0,0-.293-4.18c-0.376-3.16-1.722-4.412-4.911-4.679-0.9-.075-1.793-0.167-2.692-0.232-0.818-.058-0.692-0.659-0.658-1.162s0.1-1.01.834-.981c1.851,0.074,3.7.166,5.554,0.158,5.106-.022,10.212-0.091,15.317-0.144,0.838-.009,1.04.177,1.094,1.028,0.055,0.867-.117,1.057-0.951,1.179-0.913.133-1.831,0.264-2.73,0.472a3.452,3.452,0,0,0-2.918,3.118,69.452,69.452,0,0,0-.425,6.941c-0.042,11,.021,21.99-0.039,32.984-0.021,3.742-.147,7.5-0.482,11.222a21.361,21.361,0,0,1-8.64,15.814,16.758,16.758,0,0,1-11.038,3.382,6.294,6.294,0,0,1-.817-0.1c-2.109-.365-2.62-1.29-1.813-3.274,0.825-2.027,2.034-2.716,4.2-2.322,1.669,0.3,3.315.759,4.994,0.971a3.583,3.583,0,0,0,4.268-2.615,36.479,36.479,0,0,0,1.377-6.263,125.322,125.322,0,0,0,.8-16.754c-0.013-4.348,0-8.7,0-13.044h-0.013Zm69.9,8.94c0-3.3-.052-6.6.02-9.9a4.2,4.2,0,0,0-2.2-4.035c-0.569-.34-1.319-0.588-1.226-1.515s0.949-.838,1.5-1.12q3.639-1.846,7.314-3.624a1.054,1.054,0,0,1,.87-0.029,1.078,1.078,0,0,1,.338.809c0,1.173-.1,2.346-0.109,3.519-0.007,1.1.613,1.422,1.538,0.859a27.367,27.367,0,0,1,9.191-3.915,13.018,13.018,0,0,1,6.315.26c3.842,1.2,5.777,4.012,6.409,7.829a20.367,20.367,0,0,1,.2,3.135c0.05,6.147.074,12.3,0.11,18.443a5.481,5.481,0,0,0,.049.747c0.318,2.206.92,2.8,3.142,3.116,0.52,0.074,1.04.147,1.557,0.236,0.731,0.126.923,0.436,0.824,1.282a0.85,0.85,0,0,1-1.029.873c-3.328-.1-6.657-0.171-9.986-0.189-1.8-.01-3.6.1-5.405,0.167a0.864,0.864,0,0,1-1.124-.925,0.952,0.952,0,0,1,.911-1.242c0.638-.119,1.286-0.2,1.918-0.343a2.607,2.607,0,0,0,2.408-2.635,18.072,18.072,0,0,0,.156-2.166c0.015-5.473.029-10.947,0-16.42a11.512,11.512,0,0,0-.384-2.733,6.774,6.774,0,0,0-6.1-5.375,11.123,11.123,0,0,0-7.782,1.513,5.785,5.785,0,0,0-2.876,5.054c-0.037,6.3-.014,12.6,0,18.894a9.384,9.384,0,0,0,.181,1.561,2.587,2.587,0,0,0,2.175,2.276c0.734,0.152,1.47.292,2.21,0.414,0.8,0.132.707,0.737,0.667,1.273a0.814,0.814,0,0,1-.945.877q-7.695-.045-15.391,0a1.106,1.106,0,0,1-.241-2.163,23.426,23.426,0,0,0,2.366-.39,2.443,2.443,0,0,0,2.222-2.364,13.122,13.122,0,0,0,.167-1.938c0.016-3.374.008-6.748,0.008-10.122h0.025Zm156.058-4.956c0,4.15-.034,8.3.02,12.448a20.828,20.828,0,0,0,.439,3.934c0.347,1.679,1.053,2.167,2.747,2.089a20.744,20.744,0,0,0,2.527-.316,0.556,0.556,0,0,1,.74.495,1.42,1.42,0,0,1-1.25,2.072c-2.483.569-4.971,1.127-7.435,1.772a20.175,20.175,0,0,0-2.859,1.113,0.926,0.926,0,0,1-1.459-.947c-0.008-1.049.017-2.1-.013-3.149-0.034-1.155-.481-1.383-1.444-0.765a25.961,25.961,0,0,1-8.269,3.8,15.748,15.748,0,0,1-7.582-.126,7.83,7.83,0,0,1-6-6.663,24.012,24.012,0,0,1-.347-4.169c-0.038-5.049,0-10.1-.02-15.148,0-1.321-.092-2.645-0.2-3.963a2.953,2.953,0,0,0-1.927-2.557,11.925,11.925,0,0,0-1.169-.507,1.074,1.074,0,0,1-.734-1.362,0.894,0.894,0,0,1,1.1-.752,30.775,30.775,0,0,0,8.481-1.421c0.8-.25,1.175.092,1.121,0.914-0.086,1.321-.184,2.645-0.189,3.968-0.023,6.248-.037,12.5,0,18.746a18.017,18.017,0,0,0,.4,3.638c0.776,3.629,2.8,5.391,6.508,5.745a11.6,11.6,0,0,0,7.881-2.093,5.094,5.094,0,0,0,2.342-4.311c0.047-6.223.016-12.446-.006-18.67a8.368,8.368,0,0,0-.252-1.548,2.674,2.674,0,0,0-1.616-2.025c-0.73-.325-1.472-0.624-2.216-0.915a1.025,1.025,0,0,1-.676-1.259,0.9,0.9,0,0,1,1.025-.767,38.947,38.947,0,0,0,8.32-1.066c0.388-.1.768-0.223,1.149-0.343,0.7-.221,1.063.035,1.038,0.762-0.051,1.523-.155,3.046-0.17,4.569-0.028,2.924-.008,5.849-0.008,8.773h0.008ZM287.3,325.989c0,3.3-.031,6.593.021,9.888a8.5,8.5,0,0,0,.461,2.489,3.886,3.886,0,0,0,5.993,2.137,1.124,1.124,0,0,1,.316-0.195,2.6,2.6,0,0,1,.9-0.1,4.082,4.082,0,0,1,.174,1.177,0.5,0.5,0,0,1-.172.238c-1.938,2.231-5.627,4.082-9.195,3.046a6.906,6.906,0,0,1-3.689-2.558c-0.989-1.314-1.305-1.371-2.737-.563-1.37.774-2.731,1.571-4.131,2.288a9.631,9.631,0,0,1-8.753.206,8.017,8.017,0,0,1-4.2-9.265,5.125,5.125,0,0,1,2.39-3.153,37.2,37.2,0,0,1,4.841-2.341c3.354-1.3,6.753-2.478,10.149-3.664a2.2,2.2,0,0,0,1.728-2.236,61.442,61.442,0,0,0-.1-6.8,6.463,6.463,0,0,0-10.455-4.156,3.58,3.58,0,0,0-1.547,3.017,3.364,3.364,0,0,1-2.717,3.681,19.3,19.3,0,0,1-3.065.639,1.014,1.014,0,0,1-1.252-1.306,5.1,5.1,0,0,1,.681-2.1,13.83,13.83,0,0,1,2.3-2.742,22.977,22.977,0,0,1,11.934-5.715,11.092,11.092,0,0,1,5.545.552c2.931,1.086,4.372,3.359,4.865,6.315a14.788,14.788,0,0,1,.187,2.684c-0.052,2.847-.157,5.693-0.241,8.54Zm-6.195,6.843,0.052-.006c0-1.1.007-2.2,0-3.292-0.009-1.053-.342-1.359-1.385-1.2a12.938,12.938,0,0,0-1.893.443,25.664,25.664,0,0,0-6.953,2.9,4.531,4.531,0,0,0-2.05,4.871,4.964,4.964,0,0,0,3.715,4.264c2.828,0.746,5.205-.328,7.3-2.111a2.834,2.834,0,0,0,.821-1.626C280.931,335.672,280.987,334.247,281.107,332.832Zm109.1-11.709q-4.734,0-9.466,0a8.125,8.125,0,0,0-.975.033,1.145,1.145,0,0,0-1.3,1.311c-0.371,6.017,1.921,13.3,8.405,16.3a14.131,14.131,0,0,0,8.2,1.148c2.532-.379,4.326-1.941,5.943-3.783a1.19,1.19,0,0,1,.941-0.37,1.344,1.344,0,0,1,.758.714,1.094,1.094,0,0,1-.16.812,14.137,14.137,0,0,1-8.271,6.764,16.826,16.826,0,0,1-12.924-.777,14.734,14.734,0,0,1-8.234-10.646c-1.629-7.212-.247-13.825,4.716-19.442a16.252,16.252,0,0,1,17.971-4.327c3.644,1.532,6.116,4.128,6.806,8.121a13.487,13.487,0,0,1-.049,2.975,1.035,1.035,0,0,1-1.1,1c-0.673.055-1.347,0.139-2.021,0.142-3.079.015-6.159,0.007-9.239,0.007v0.009Zm-4.1-2.551V318.44c1.849,0,3.7.053,5.547-.02a21.784,21.784,0,0,0,3.256-.455,1.408,1.408,0,0,0,1.144-1.31,5.456,5.456,0,0,0-4.411-6.034c-5.459-1.285-10.077,2.346-11.712,5.586a5.907,5.907,0,0,0-.437,1.189c-0.248.962-.081,1.171,0.912,1.174C382.3,318.577,384.2,318.572,386.1,318.572Zm-90.161,6.607q0-5.024,0-10.047c0-.424,0-0.85-0.033-1.273a1.025,1.025,0,0,0-1.164-1.161c-0.85-.04-1.7-0.055-2.553-0.018a0.854,0.854,0,0,1-1.018-.831,0.87,0.87,0,0,1,.653-1.146,12.984,12.984,0,0,0,8.63-7.312,1.055,1.055,0,0,1,1.39-.488,0.822,0.822,0,0,1,.666,1c-0.031,1.249-.02,2.5-0.006,3.748,0.012,1.139.237,1.361,1.371,1.363,3.155,0.006,6.311.021,9.465-.013a0.976,0.976,0,0,1,1.134.828,8.286,8.286,0,0,1,.017,2.058,0.888,0.888,0,0,1-1.062.8c-3.1-.027-6.209-0.015-9.314-0.011-1.444,0-1.67.2-1.669,1.64,0,6.4-.018,12.8.069,19.192a14.29,14.29,0,0,0,.726,4.027,5.024,5.024,0,0,0,4.782,3.578,6.8,6.8,0,0,0,4.823-1.254c0.42-.309.876-0.608,1.288-0.025a1.067,1.067,0,0,1-.151,1.537,12.6,12.6,0,0,1-10.371,3.529,13.01,13.01,0,0,1-1.924-.3,6.745,6.745,0,0,1-5.457-5.938,23,23,0,0,1-.278-3.428C295.915,331.877,295.938,328.528,295.939,325.179Zm111.29,39.806q0,6.484,0,12.97c0,1.014.114,1.109,1.115,1.115a3.346,3.346,0,0,0,2.458-.962q2.788-2.825,5.451-5.773c0.6-.661.412-1.006-0.5-1.192a11.621,11.621,0,0,0-1.484-.209,0.658,0.658,0,0,1-.693-0.779,0.611,0.611,0,0,1,.759-0.6q3.753-.109,7.5-0.255c0.7-.027,1.4-0.091,2.1-0.166a0.538,0.538,0,0,1,.7.555,0.628,0.628,0,0,1-.543.816,7.65,7.65,0,0,0-1.9.417,10.821,10.821,0,0,0-2.659,1.489c-2.038,1.731-3.976,3.579-5.952,5.381a0.865,0.865,0,0,0-.1,1.37c3.039,3.419,6.056,6.857,9.13,10.244a5.01,5.01,0,0,0,3.279,1.319,0.671,0.671,0,0,1,.716.816c-0.034.55-.353,0.589-0.823,0.586q-5.181-.033-10.362,0c-0.463,0-.793-0.024-0.846-0.569a0.648,0.648,0,0,1,.686-0.834,10.1,10.1,0,0,0,1.545-.288,0.493,0.493,0,0,0,.354-0.8,5.76,5.76,0,0,0-.671-0.987q-3.1-3.615-6.225-7.214a2.514,2.514,0,0,0-2.114-.93,0.757,0.757,0,0,0-.857.74c-0.045.6-.075,1.2-0.066,1.8,0.029,1.872.034,3.747,0.137,5.616a1.784,1.784,0,0,0,1.858,1.942,8.822,8.822,0,0,0,1.116.142,0.609,0.609,0,0,1,.669.768c-0.027.52-.292,0.631-0.791,0.627q-5.031-.041-10.061,0c-0.507,0-.782-0.119-0.808-0.614a0.634,0.634,0,0,1,.688-0.774,4.363,4.363,0,0,0,.667-0.1c1.909-.313,2.321-0.748,2.332-2.709,0.027-4.748.021-9.5,0.022-14.245,0-5.123-.029-10.246.007-15.369a3.382,3.382,0,0,0-1.925-3.418,1.3,1.3,0,0,1-.577-0.9,1.24,1.24,0,0,1,.72-0.582c1.714-.688,3.449-1.326,5.165-2.012,0.765-.306.93-0.221,0.93,0.611q0,6.484,0,12.968h-0.152ZM386.974,393a21.172,21.172,0,0,1-8.017-1.821A1.588,1.588,0,0,1,377.933,390q-0.6-3.307-1.181-6.618a0.649,0.649,0,0,1,.562-0.875,0.719,0.719,0,0,1,.863.6,27.4,27.4,0,0,0,1.822,3.84A9.193,9.193,0,0,0,389.9,391c3.662-.79,5.683-3.939,5.136-7.855a8.491,8.491,0,0,0-3.829-6c-1.994-1.38-4.049-2.672-6.075-4a16.515,16.515,0,0,1-4.07-3.628c-4.695-6.05-1.888-13.919,5.582-15.665a19.044,19.044,0,0,1,9.2.34,2.7,2.7,0,0,0,.8.191c1.07-.077,1.342.573,1.447,1.448,0.2,1.708.431,3.413,0.653,5.119a0.633,0.633,0,0,1-.586.792,0.668,0.668,0,0,1-.9-0.528,12.457,12.457,0,0,0-.666-1.826,6.676,6.676,0,0,0-5.778-4.171,11.875,11.875,0,0,0-3.576.189,6.083,6.083,0,0,0-3.988,8.6,10.424,10.424,0,0,0,4.083,4.386c1.742,1.128,3.521,2.2,5.272,3.312a16.117,16.117,0,0,1,4.944,4.636c3.337,5.042,2.469,14.071-6.644,16.141C389.623,392.766,388.287,392.831,386.974,393Zm-19.566-70.734c0,4.524-.018,9.047.014,13.57a25.759,25.759,0,0,0,.287,3.428,2.382,2.382,0,0,0,2.1,2.139c0.811,0.149,1.623.3,2.44,0.4,0.865,0.109.754,0.73,0.719,1.3a0.8,0.8,0,0,1-.957.859c-3.353-.093-6.707-0.172-10.061-0.19-1.851-.01-3.7.081-5.553,0.187a0.844,0.844,0,0,1-1.021-.884c-0.1-.816.082-1.14,0.761-1.262,0.565-.1,1.136-0.179,1.7-0.259,2.071-.291,2.833-1.083,2.976-3.174,0.078-1.146.132-2.3,0.135-3.444q0.021-8.622.007-17.244c0-.3-0.014-0.6-0.011-0.9a3.777,3.777,0,0,0-1.9-3.511,12.671,12.671,0,0,1-1.118-.757,1,1,0,0,1,.235-1.777c2.8-1.312,5.594-2.655,8.4-3.961a1.156,1.156,0,0,1,.888-0.051,1,1,0,0,1,.253.771c-0.127,4.92-.275,9.839-0.418,14.759ZM253.524,252.822c0-4.5.019-9-.012-13.5a26.88,26.88,0,0,0-.268-3.73c-0.281-1.907-1.079-2.59-3.033-2.8a15.688,15.688,0,0,0-1.645-.141,0.543,0.543,0,0,1-.618-0.7,0.578,0.578,0,0,1,.679-0.669c1.626,0.064,3.254.139,4.88,0.134,2.754-.008,5.507-0.07,8.261-0.119,0.443-.008.851-0.063,0.91,0.574a0.66,0.66,0,0,1-.761.824,8.047,8.047,0,0,0-1.255.213,2.551,2.551,0,0,0-2.352,2.588,21.972,21.972,0,0,0-.151,2.391c-0.012,7.772,0,15.545-.015,23.318a35.83,35.83,0,0,1-.768,9.31c-1.3,4.832-4.157,8.334-9.152,9.688a12.434,12.434,0,0,1-3.712.243c-1.236-.052-1.6-0.747-1.188-1.909a2.136,2.136,0,0,1,2.684-1.652c0.836,0.134,1.656.371,2.488,0.541,2.116,0.432,3.262-.226,3.853-2.287a30.93,30.93,0,0,0,1.013-8.08c0.078-4.746.022-9.5,0.022-14.242h0.14ZM331.18,258.8c0,1.949,0,3.9,0,5.847a6.891,6.891,0,0,0,.066,1.046c0.223,1.425.552,1.755,1.987,2.016a9.545,9.545,0,0,0,.967.127,0.625,0.625,0,0,1,.606.826c-0.043.508-.345,0.57-0.777,0.568q-4.878-.019-9.757,0a0.613,0.613,0,0,1-.771-0.581,0.643,0.643,0,0,1,.616-0.83c0.4-.051.792-0.117,1.182-0.205a1.682,1.682,0,0,0,1.56-1.729,19.26,19.26,0,0,0,.132-2.092q0.021-4.8,0-9.6a8.763,8.763,0,0,0-.183-1.785,4.458,4.458,0,0,0-3.918-3.789,7.185,7.185,0,0,0-5.188.972,3.731,3.731,0,0,0-1.847,3.245q-0.031,6.072,0,12.144c0.013,2.011.473,2.482,2.455,2.792a1.319,1.319,0,0,1,.8.3,0.967,0.967,0,0,1,.027.83,0.816,0.816,0,0,1-.647.3c-1.9-.023-3.8-0.111-5.7-0.119-1.325,0-2.652.074-3.977,0.139a0.594,0.594,0,0,1-.766-0.581,0.636,0.636,0,0,1,.62-0.822c0.422-.045.842-0.114,1.258-0.2a1.69,1.69,0,0,0,1.605-1.764,21.553,21.553,0,0,0,.126-2.169c0.013-3.848-.017-7.7.02-11.545a3.117,3.117,0,0,0-1.619-3.051,1.146,1.146,0,0,1-.57-0.826,1.34,1.34,0,0,1,.747-0.659c1.581-.8,3.184-1.56,4.769-2.353,0.619-.31.881-0.176,0.872,0.518s-0.053,1.4-.044,2.1c0.01,0.831.374,1.03,1.084,0.6a17.771,17.771,0,0,1,6.278-2.56c3.722-.6,6.742,1.12,7.624,4.44a11.22,11.22,0,0,1,.335,2.59c0.049,1.948.015,3.9,0.015,5.848h0.015Zm-27.5-3.342v8.62c0,0.1,0,.2.011,0.3,0.138,2.377.789,2.894,3.125,2.527,0.387-.061.917-0.359,1.045,0.392a0.886,0.886,0,0,1-.82,1.157,28.764,28.764,0,0,0-6.77,1.885c-0.513.245-.829-0.026-0.85-0.568-0.029-.7.01-1.4-0.022-2.1-0.034-.745-0.324-0.9-0.951-0.5a15.5,15.5,0,0,1-5.947,2.564,9.946,9.946,0,0,1-4.605-.286c-2.406-.775-3.458-2.611-3.69-4.968-0.144-1.462-.124-2.943-0.136-4.416-0.023-2.974-.042-5.948-0.012-8.922a2.639,2.639,0,0,0-1.947-2.907,0.745,0.745,0,0,1-.637-0.863c0.057-.548.47-0.478,0.832-0.539,1.77-.3,3.541-0.593,5.3-0.925,0.652-.122.771,0.14,0.764,0.718-0.061,4.748-.114,9.495-0.132,14.243a13.708,13.708,0,0,0,.263,2.6,4.277,4.277,0,0,0,4.248,3.815,7.527,7.527,0,0,0,5.045-1.328,3.31,3.31,0,0,0,1.568-2.833c0.023-4.073.01-8.147-.009-12.22a2.472,2.472,0,0,0-1.861-2.512c-0.51-.174-1.357-0.174-1.175-1.054,0.169-.812.945-0.448,1.455-0.539,1.719-.306,3.451-0.539,5.169-0.845,0.654-.117.768-0.057,0.767,0.653q-0.009,4.422,0,8.845h-0.029ZM423.82,381.117c0.152-6.229,4.141-11.136,10.249-12.187a11.336,11.336,0,0,1,13.591,10.3c0.363,4.278-.765,8.032-4.132,10.884-5.345,4.528-15.754,3.566-18.723-4.568A33.358,33.358,0,0,1,423.82,381.117Zm19.069,0.348a14.394,14.394,0,0,0-2.26-8.324,5.911,5.911,0,0,0-10.389.652,12.183,12.183,0,0,0-1.314,4.805,15.225,15.225,0,0,0,1.73,9.052,6.5,6.5,0,0,0,3.869,3.239c3.24,0.931,6.115-.588,7.417-3.919A14.614,14.614,0,0,0,442.889,381.465ZM334.4,258.189a12.1,12.1,0,0,1,13.405-12.305,11.269,11.269,0,0,1,10.3,10.281c0.38,3.98-.51,7.59-3.456,10.423-3.451,3.32-7.661,3.986-12.131,2.744A10.47,10.47,0,0,1,334.771,261C334.562,260.084,334.521,259.128,334.4,258.189Zm18.937,0.346a14.428,14.428,0,0,0-2.181-8.2c-2.8-4.116-8.215-3.773-10.506.639a12.466,12.466,0,0,0-1.285,4.89,15.169,15.169,0,0,0,1.719,8.834,6.615,6.615,0,0,0,3.63,3.2c3.288,1.124,6.348-.414,7.69-3.86A14.538,14.538,0,0,0,353.339,258.535Zm-75.2-.876c0,2.346-.076,4.695.026,7.036,0.069,1.587.966,2.636,2.215,2.692a8.259,8.259,0,0,0,2.064-.483,3.42,3.42,0,0,1,.65-0.028,1.487,1.487,0,0,1-.009.748c-2,2.474-6.126,3.262-8.3.506-0.79-1-.886-1.007-1.968-0.392-0.848.482-1.692,0.972-2.561,1.413a6.313,6.313,0,0,1-5.444.226,5.167,5.167,0,0,1-2.936-6.008,3.46,3.46,0,0,1,1.7-2.2,26.276,26.276,0,0,1,3.181-1.487c2.075-.8,4.18-1.52,6.271-2.277a1.474,1.474,0,0,0,1.248-1.77c0.012-1.224.07-2.452,0-3.672a4.2,4.2,0,0,0-6.661-3.286,2.452,2.452,0,0,0-1.2,1.968c-0.119,1.71-.4,2.077-2.052,2.6a7.78,7.78,0,0,1-1.611.334,0.73,0.73,0,0,1-.873-0.97,4.788,4.788,0,0,1,.871-1.869,13.381,13.381,0,0,1,10.309-4.868,4.956,4.956,0,0,1,5.231,4.969c0.124,2.265.024,4.542,0.024,6.813h-0.169Zm-4.085,4.279,0.05,0c0-.673,0-1.345,0-2.018,0-.623-0.28-1.01-0.926-0.788a52.345,52.345,0,0,0-5.448,2.016,2.9,2.9,0,0,0-1.541,3.606,3.314,3.314,0,0,0,3.178,2.6,5.351,5.351,0,0,0,3.722-1.326,2.263,2.263,0,0,0,.718-1.256C273.97,263.836,273.978,262.881,274.052,261.938Zm200.932,118.4c0,1.973-.023,3.946.012,5.918a8.353,8.353,0,0,0,.276,2.066,2.541,2.541,0,0,0,3.943,1.622,2.735,2.735,0,0,1,.851-0.145,2.163,2.163,0,0,1-.231.98,5.827,5.827,0,0,1-5.417,1.9,4.362,4.362,0,0,1-2.685-1.65c-0.775-.976-0.88-0.985-1.979-0.362-0.87.492-1.743,0.981-2.631,1.437a6.316,6.316,0,0,1-4.3.535,5.2,5.2,0,0,1-4-6.291,3.381,3.381,0,0,1,1.657-2.225,22.963,22.963,0,0,1,3.032-1.45c2.191-.844,4.408-1.619,6.622-2.4a1.3,1.3,0,0,0,1.061-1.2,30.029,30.029,0,0,0-.1-4.924,4.162,4.162,0,0,0-6.8-2.306,3.96,3.96,0,0,0-.89,1.727c-0.22.665-.007,1.492-0.732,1.957a5.242,5.242,0,0,1-3.258.936,0.7,0.7,0,0,1-.554-1.076,8.2,8.2,0,0,1,1.34-2.291,13.7,13.7,0,0,1,6.786-3.933,11.205,11.205,0,0,1,3.547-.295,4.889,4.889,0,0,1,4.748,5.037c0.083,2.144.016,4.294,0.016,6.441h-0.307Zm-3.961,4.375-0.055,0c0.029-.623.064-1.246,0.086-1.87a0.683,0.683,0,0,0-.916-0.818,17.059,17.059,0,0,0-5.708,2.166,2.872,2.872,0,0,0-1.362,3.022,3.247,3.247,0,0,0,2.3,2.874,4.945,4.945,0,0,0,4.885-1.354,2.182,2.182,0,0,0,.559-1.26C470.942,386.555,470.958,385.628,471.023,384.708Zm-15.583-14.57c0,5.948-.021,11.9.011,17.845,0.011,1.972.412,2.353,2.371,2.667a6.251,6.251,0,0,0,.744.094,0.589,0.589,0,0,1,.613.751,0.614,0.614,0,0,1-.722.643c-3.429-.026-6.858-0.021-10.287,0a0.557,0.557,0,0,1-.662-0.607c-0.022-.409.029-0.752,0.562-0.783,0.374-.022.745-0.093,1.116-0.145a1.866,1.866,0,0,0,1.944-2.033c0.06-.822.1-1.648,0.1-2.472q0.01-13.31,0-26.62c0-.4-0.053-0.8-0.027-1.2a3.286,3.286,0,0,0-2.022-3.435,1.037,1.037,0,0,1-.451-0.813,1.021,1.021,0,0,1,.619-0.583c1.782-.72,3.581-1.4,5.371-2.1,0.585-.23.836-0.063,0.828,0.577q-0.121,9.11-.244,18.218h0.133ZM282.461,373.06c1.427,0,2.854-.012,4.281.007a0.683,0.683,0,0,0,.816-0.8c-0.025-1.624-.011-3.248-0.057-4.871a1.379,1.379,0,0,0-1.482-1.6,2.128,2.128,0,0,1-.625-0.332,2.08,2.08,0,0,1,.661-0.255q2.589-.031,5.18,0a1.865,1.865,0,0,1,.6.246,1.7,1.7,0,0,1-.546.335c-1.238.176-1.579,0.485-1.585,1.734q-0.033,6.333,0,12.666c0.006,1.34.3,1.608,1.656,1.842a1.933,1.933,0,0,1,.59.36,2.071,2.071,0,0,1-.624.222q-2.666.026-5.331,0a1.862,1.862,0,0,1-.6-0.235,1.811,1.811,0,0,1,.526-0.359c1.387-.322,1.573-0.5,1.6-1.9,0.038-1.723.013-3.448,0.041-5.171a0.759,0.759,0,0,0-.9-0.894q-4.243.016-8.486,0a0.745,0.745,0,0,0-.913.812c0.025,1.8-.007,3.6.082,5.393,0.067,1.361.38,1.593,1.734,1.773a2.476,2.476,0,0,1,.66.3,2.324,2.324,0,0,1-.732.276c-1.752.026-3.5,0.025-5.256,0.008a2,2,0,0,1-.627-0.234,1.861,1.861,0,0,1,.526-0.373c1.252-.329,1.507-0.6,1.512-1.926q0.022-6.035,0-12.067c-0.007-1.714-.2-1.9-1.886-2.244a1.127,1.127,0,0,1-.379-0.338,1.537,1.537,0,0,1,.541-0.244c1.676-.008,3.353.011,5.03,0.02a3.159,3.159,0,0,1,.6-0.01,1.242,1.242,0,0,1,.381.261,1.158,1.158,0,0,1-.34.31,5.11,5.11,0,0,1-.666.09,1.161,1.161,0,0,0-1.065,1.166c-0.05,1.771-.079,3.544-0.106,5.316a0.672,0.672,0,0,0,.831.716C279.557,373.053,281.009,373.061,282.461,373.06ZM276.482,297.9c-2.777,0-5.554-.018-8.331.014a0.945,0.945,0,0,1-1.048-.724,4.752,4.752,0,0,1,.124-3.711,1.048,1.048,0,0,1,.775-0.5c5.654-.028,11.308-0.016,16.963-0.032a0.735,0.735,0,0,1,.823.568,6.154,6.154,0,0,1,.028,3.754,0.8,0.8,0,0,1-.927.637C282.087,297.886,279.285,297.9,276.482,297.9Zm91.7-4.539a4.265,4.265,0,0,1-4.624,4.477,4.328,4.328,0,0,1-4.477-4.428,4.528,4.528,0,0,1,4.842-4.666A4.3,4.3,0,0,1,368.187,293.359Zm-208.945,89.27c-1.876,0-3.753.008-5.629-.01a1.959,1.959,0,0,1-.613-0.23,1.872,1.872,0,0,1,.6-0.344c1.483-.191,1.8-0.5,1.805-2.015q0.021-6.106,0-12.212c-0.006-1.557-.322-1.858-1.859-2.028a1.6,1.6,0,0,1-.543-0.333,1.786,1.786,0,0,1,.6-0.249q2.814-.029,5.629,0a1.955,1.955,0,0,1,.621.239,1.906,1.906,0,0,1-.62.343c-1.277.141-1.6,0.362-1.65,1.656-0.083,2.344-.074,4.693-0.07,7.039,0,1.822.014,3.646,0.1,5.464a1.621,1.621,0,0,0,1.734,1.774,29.113,29.113,0,0,0,4.114-.027,2.458,2.458,0,0,0,1.407-.856,12.049,12.049,0,0,0,1.039-1.72,0.523,0.523,0,0,1,.4-0.221,0.428,0.428,0,0,1,.214.357c-0.289,1.056-.586,2.111-0.947,3.144a0.958,0.958,0,0,1-.7.218C163,382.636,161.119,382.628,159.242,382.629Zm85.515-11.106c0.029,0.607.054,1.115,0.086,1.774,0.369-.174.6-0.3,0.836-0.39a16.346,16.346,0,0,1,2.66-.95,2.815,2.815,0,0,1,3.5,2.9c0.038,1.8.006,3.6,0.018,5.4,0.01,1.359.057,1.4,1.343,1.8a1.043,1.043,0,0,1,.312.321,0.968,0.968,0,0,1-.382.237q-2.178.026-4.357,0a0.905,0.905,0,0,1-.362-0.254,1.119,1.119,0,0,1,.328-0.309c1.176-.384,1.205-0.391,1.219-1.591,0.019-1.6.013-3.2,0.005-4.8a2.215,2.215,0,0,0-1.294-2.332,2.931,2.931,0,0,0-3.174.443,2.456,2.456,0,0,0-.683,1.568c-0.084,1.746-.043,3.5-0.023,5.248,0.011,1.022.163,1.172,1.143,1.452a1.464,1.464,0,0,1,.41.313,1.389,1.389,0,0,1-.513.259q-2.028.033-4.056,0a1.532,1.532,0,0,1-.537-0.242,1.648,1.648,0,0,1,.478-0.328c1.012-.234,1.145-0.358,1.155-1.411,0.017-1.974,0-3.949.018-5.924a1.326,1.326,0,0,0-.632-1.265c-0.436-.272-0.512-0.525.048-0.771C243.1,372.322,243.879,371.937,244.757,371.523Zm58.489,11.412a5.176,5.176,0,0,1-5.367-5.41,5.558,5.558,0,0,1,5.6-5.643,5.242,5.242,0,0,1,5.324,5.481A5.3,5.3,0,0,1,303.246,382.935Zm3.478-5.148a7.773,7.773,0,0,0-1.108-3.811,2.736,2.736,0,0,0-4.9.308,6.487,6.487,0,0,0-.553,1.928,6.69,6.69,0,0,0,.859,4.542,2.82,2.82,0,0,0,2.911,1.444,2.565,2.565,0,0,0,2.209-1.883A25.206,25.206,0,0,0,306.724,377.787Zm-124.9,3.819a2.351,2.351,0,0,1-3.761.653,0.818,0.818,0,0,0-1.264-.177,3.978,3.978,0,0,1-2.807.831,2.381,2.381,0,0,1-2.036-1.923,1.874,1.874,0,0,1,1.263-2.276,33.516,33.516,0,0,1,3.432-1.294,1.215,1.215,0,0,0,1.06-1.432c-0.063-.567.018-1.156-0.085-1.712a1.742,1.742,0,0,0-2-1.418,1.52,1.52,0,0,0-1.622,1.5,1.59,1.59,0,0,1-1.805,1.018,0.553,0.553,0,0,1-.194-0.478,1.471,1.471,0,0,1,.311-0.669,6.17,6.17,0,0,1,4.611-2.326,2.37,2.37,0,0,1,2.622,2.614c0,1.448-.088,2.9-0.13,4.343-0.014.474-.027,0.951,0,1.424,0.076,1.362.744,1.8,2.029,1.351A1.781,1.781,0,0,1,181.822,381.606Zm-4.2-2.3c0-.174,0-0.349,0-0.523,0.013-.847-0.074-0.935-0.909-0.679a11.948,11.948,0,0,0-1.947.752,1.426,1.426,0,0,0-.769,1.939,1.6,1.6,0,0,0,1.943.985C177.258,381.5,177.525,381.1,177.626,379.305Zm58.5,2.425a3.089,3.089,0,0,1-.353.49,2.4,2.4,0,0,1-3.524-.1,0.692,0.692,0,0,0-1.039-.087,4.379,4.379,0,0,1-2.72.9,2.344,2.344,0,0,1-2.213-1.985,1.9,1.9,0,0,1,1.36-2.286c1.193-.509,2.42-0.943,3.647-1.364a0.938,0.938,0,0,0,.755-1.04,13.62,13.62,0,0,0-.14-2.078,1.7,1.7,0,0,0-1.986-1.316,1.514,1.514,0,0,0-1.583,1.461,1.531,1.531,0,0,1-1.707,1.076,0.469,0.469,0,0,1-.287-0.338,1.617,1.617,0,0,1,.215-0.7,6.157,6.157,0,0,1,5.283-2.4,2.149,2.149,0,0,1,1.98,2.177c0.042,1.6-.05,3.194-0.071,4.792a10.422,10.422,0,0,0,.05,1.64,1.219,1.219,0,0,0,1.9,1.1c0.089-.034.182-0.055,0.273-0.083Zm-4.207-2.35c0-.249-0.018-0.5,0-0.746,0.052-.6-0.194-0.784-0.752-0.572a20.976,20.976,0,0,0-2.15.835,1.428,1.428,0,0,0-.7,1.907,1.617,1.617,0,0,0,1.805,1.007C231.48,381.6,231.875,381.056,231.915,379.38Zm118.135,1.006a6.264,6.264,0,0,1-.616,1.046,4.82,4.82,0,0,1-7.983-1.445,6.12,6.12,0,0,1,1.1-6.391,4.763,4.763,0,0,1,5.587-1.3,3,3,0,0,1,1.873,2.6,0.747,0.747,0,0,1-.879.952c-1.8-.019-3.6,0-5.406,0-0.939,0-.983.051-0.964,0.968a4.5,4.5,0,0,0,3.856,4.7,2.9,2.9,0,0,0,2.666-.867c0.149-.153.314-0.29,0.471-0.434Zm-7.021-5.339c1.371,0,2.654.035,3.933-.021a1.5,1.5,0,0,0,1.027-.453,2.093,2.093,0,0,0-.427-1.4,2.234,2.234,0,0,0-2.576-.337A2.9,2.9,0,0,0,343.029,375.047Zm-138.32,4.79a6.243,6.243,0,0,0,.37-0.665c0.642-1.652,1.293-3.3,1.9-4.963,0.375-1.022.342-1.026-.626-1.411a1.066,1.066,0,0,1-.3-0.353,0.967,0.967,0,0,1,.38-0.244q1.611-.027,3.223,0a1.073,1.073,0,0,1,.4.219,0.869,0.869,0,0,1-.27.364,2.155,2.155,0,0,0-1.72,1.6c-1.155,2.6-2.275,5.214-3.427,7.815a4.688,4.688,0,0,1-.567.791,5.8,5.8,0,0,1-.469-0.778c-1.131-2.746-2.245-5.5-3.371-8.246a1.644,1.644,0,0,0-1.365-1.14,1.3,1.3,0,0,1-.469-0.361,1.433,1.433,0,0,1,.52-0.257q1.912-.036,3.825,0a1.4,1.4,0,0,1,.515.268,1.1,1.1,0,0,1-.411.345c-0.831.081-.836,0.54-0.59,1.155,0.695,1.737,1.382,3.477,2.08,5.213A6.147,6.147,0,0,0,204.709,379.837Zm123.5-.406a2.044,2.044,0,0,1,.447.4,7.258,7.258,0,0,0,.544,1.058,4.822,4.822,0,0,0,1.313,1.169,1.9,1.9,0,0,0,2.423-.546,1.93,1.93,0,0,0-.4-2.449,15.268,15.268,0,0,0-1.4-1,12.337,12.337,0,0,1-1.837-1.4,2.7,2.7,0,0,1,.912-4.37,5.269,5.269,0,0,1,3.81-.12,2.475,2.475,0,0,1,.731,2.239,0.737,0.737,0,0,1-.589-0.159,8.972,8.972,0,0,0-1.292-1.4,1.71,1.71,0,0,0-2.658,1.048,1.587,1.587,0,0,0,.663,1.644c0.533,0.408,1.154.7,1.688,1.106a8.617,8.617,0,0,1,1.789,1.558,2.806,2.806,0,0,1-1.244,4.348,5.522,5.522,0,0,1-3.889.092,1.3,1.3,0,0,1-1.074-1.263c-0.023-.616-0.087-1.232-0.133-1.848Zm27.68-.009a2.7,2.7,0,0,1,.454.459,6.45,6.45,0,0,0,.722,1.3,3.872,3.872,0,0,0,1.516,1,1.711,1.711,0,0,0,2.081-.77,1.935,1.935,0,0,0-.454-2.324,15.251,15.251,0,0,0-1.394-1,12.521,12.521,0,0,1-1.839-1.4,2.7,2.7,0,0,1,.95-4.408,5.275,5.275,0,0,1,3.74-.1,2.411,2.411,0,0,1,.749,2.228,0.726,0.726,0,0,1-.581-0.131,8.71,8.71,0,0,0-1.354-1.433,1.692,1.692,0,0,0-2.624,1.206,1.637,1.637,0,0,0,.729,1.553c0.543,0.395,1.158.694,1.7,1.095a8.219,8.219,0,0,1,1.689,1.451,2.826,2.826,0,0,1-1.254,4.447,5.631,5.631,0,0,1-3.75.1,1.377,1.377,0,0,1-1.166-1.357c-0.02-.592-0.083-1.183-0.127-1.774Zm-162.1,2.171a3.182,3.182,0,0,1-.457.57,3.738,3.738,0,0,1-3.622.572,2.164,2.164,0,0,1-1.384-2.341q-0.037-3.111,0-6.222c0.009-.629-0.16-0.946-0.845-0.883a1.385,1.385,0,0,1-.544-0.221,1.255,1.255,0,0,1,.374-0.377,3.971,3.971,0,0,0,2.234-1.9,1.445,1.445,0,0,1,.5-0.328,3.934,3.934,0,0,1,.18.515,1.347,1.347,0,0,1,0,.448c-0.09.66,0.192,0.9,0.849,0.857,0.723-.044,1.452,0,2.177-0.013,0.406-.009.68,0.148,0.564,0.554a0.8,0.8,0,0,1-.57.454c-0.8.053-1.6,0.041-2.4,0.016a0.546,0.546,0,0,0-.634.686c0.018,1.9-.022,3.8.03,5.7,0.052,1.935,1.3,2.664,3.048,1.841a2.124,2.124,0,0,1,.341-0.1Zm282.861-81.958a5.656,5.656,0,1,1,5.6,5.728A5.628,5.628,0,0,1,476.654,299.635Zm10.435,0.05a4.783,4.783,0,1,0-4.737,4.808A4.769,4.769,0,0,0,487.089,299.685ZM315.08,382.31a2.107,2.107,0,0,1,.573-0.283,1.089,1.089,0,0,0,1.048-1.211c0-2.07.059-4.142,0-6.21a3.929,3.929,0,0,0-.686-1.224,0.861,0.861,0,0,1-.064-0.6c0.831-.433,1.688-0.819,2.6-1.247,0.033,0.653.063,1.23,0.1,1.962a9.353,9.353,0,0,1,1.078-.789,6.333,6.333,0,0,1,1.83-.769,1.363,1.363,0,0,1,1.1.639,1.262,1.262,0,0,1-.29,1.168,2.086,2.086,0,0,1-1.21.163,1.429,1.429,0,0,1-.461-0.235,1.286,1.286,0,0,0-1.978,1.053,22.333,22.333,0,0,0-.124,2.537c-0.016,1.122-.03,2.246.024,3.367,0.054,1.146.263,1.317,1.4,1.405a1.117,1.117,0,0,1,.37.029,1.232,1.232,0,0,1,.29.267,2.15,2.15,0,0,1-.34.29,0.7,0.7,0,0,1-.3,0h-4.86C315.151,382.521,315.115,382.416,315.08,382.31Zm-96.314-10.826c-0.036.69-.087,1.253-0.091,1.817-0.016,2.373-.03,4.746-0.02,7.12,0,1.207.115,1.3,1.278,1.633a1.35,1.35,0,0,1,.418.381l-0.108.19c-1.6,0-3.194,0-4.791-.01a0.842,0.842,0,0,1-.335-0.223,1.036,1.036,0,0,1,.308-0.332c1.308-.436,1.321-0.43,1.33-1.785,0.012-1.824-.006-3.648.011-5.471a1.428,1.428,0,0,0-.678-1.4c-0.338-.2-0.494-0.461.007-0.69C216.932,372.335,217.766,371.946,218.766,371.484Zm-1.208-2.646a1.2,1.2,0,0,1-1.314-1.286,1.33,1.33,0,1,1,2.658.006A1.243,1.243,0,0,1,217.558,368.838ZM413.446,266.857c-0.245-.105-0.518-0.208-0.779-0.336-15.513-7.611-26.519-19.291-32.185-35.717a59.746,59.746,0,0,1-2.836-21.5,0.559,0.559,0,0,1,.594-0.65q2.452-.327,4.893-0.736a11.335,11.335,0,0,0,1.479-.453c0-.07-0.009-0.139-0.014-0.209-0.375-.035-0.751-0.069-1.126-0.106-1.067-.106-2.149-0.132-3.195-0.342a2.65,2.65,0,0,1-2.046-2.009,11.348,11.348,0,0,0,8.894-1.6c-1.637-.375-3.529-0.308-3.873-2.688a4.726,4.726,0,0,0,4.745.514c1.768-.588,3.463-1.4,5.18-2.136a2.636,2.636,0,0,0,.729-0.522c0.518-.489.457-1.021-0.226-1.172a9.451,9.451,0,0,0-2.883-.3c-1.911.181-3.8,0.55-5.7,0.844-0.206.032-.411,0.074-0.776,0.14a4.86,4.86,0,0,1,3.055-2.012c1.124-.279,2.274-0.457,3.546-0.705-1.195-.95-2.589-0.919-3.872-1.391l7.494-.566,0.018-.307a19.032,19.032,0,0,1-6-1.889c2.8-.17,5.476-0.144,8.118-1.007a19.072,19.072,0,0,1-2.033-1.328,3.076,3.076,0,0,1-.923-2.227c2.986,2.533,6.486,2.624,9.969,2.343a63.185,63.185,0,0,1,9.593.152,18.8,18.8,0,0,0,3.363-.07c0.893-.1.988-0.4,0.611-1.231a3.971,3.971,0,0,0-2.592-2.115,18.938,18.938,0,0,0-6.846-.519c-0.321.016-.642,0.052-0.962,0.078-0.029-.059-0.057-0.117-0.085-0.176,0.591-.333,1.161-0.712,1.777-0.99a12.857,12.857,0,0,1,5.5-.987,30.034,30.034,0,0,1,14.765,3.94c0.672,0.382,1.289.86,1.929,1.3a3.07,3.07,0,0,0,.744.5,1.687,1.687,0,0,0,1.171.1,1.359,1.359,0,0,0,.346-1.176,7.574,7.574,0,0,0-.945-2.254,10.2,10.2,0,0,0-6.867-4.295c-0.462-.092-0.932-0.142-1.608-0.243a14.4,14.4,0,0,1,6.391.792,7.448,7.448,0,0,1,3.946,3.622c0.239,0.467.441,0.954,0.7,1.408a1.116,1.116,0,0,0,1.958.3,3.7,3.7,0,0,0,.457-0.5c1.629-2.18,3.9-2.583,6.419-2.266-0.118.005-.237,0.014-0.355,0.015a1.342,1.342,0,0,0-.448,0,5.607,5.607,0,0,0-1.84.84,24.122,24.122,0,0,0-2.086,2.694,17.735,17.735,0,0,1,6.384-.327,2.056,2.056,0,0,0,.808-0.1,18.247,18.247,0,0,0,8.4-5.558,26.4,26.4,0,0,0,1.494-2.214,8.129,8.129,0,0,1,.014,4.155,14.273,14.273,0,0,1-2.129,4.759,2,2,0,0,0,.178,2.9,2.83,2.83,0,0,1,.857,2.449,8.472,8.472,0,0,0,2.06,6.581c1.487,1.946,2.8,4.029,4.334,5.933a6.3,6.3,0,0,1,1.38,4.08c0.018,1.2.061,2.4,0.11,3.595a8.222,8.222,0,0,0,1.166,3.757c2.745,4.818,5.519,9.619,8.259,14.44,0.689,1.214,1.313,2.467,1.925,3.722a3.165,3.165,0,0,1,.03,2.613,11.875,11.875,0,0,0-.51,2.174A8.941,8.941,0,0,1,468.8,247.1a3.765,3.765,0,0,1-1.756.25,12.786,12.786,0,0,0-4.493.6,3.451,3.451,0,0,1-4.5-2.729,8.972,8.972,0,0,0-3.887-6.465q-5.781-4.485-11.573-8.957c-0.613-.474-1.207-0.974-1.832-1.433a7.1,7.1,0,0,0-7.843-.763,14.513,14.513,0,0,0-6.976,6.561c-1,2.065-1.906,4.177-2.891,6.251-1.338,2.818-2.647,5.653-4.084,8.421a55.853,55.853,0,0,0-4.979,15.865c-0.122.662-.251,1.322-0.383,1.982A0.7,0.7,0,0,1,413.446,266.857Zm66.434,29.975c1.082,0,2.126-.053,3.161.017a1.428,1.428,0,0,1,1.426,1.287,1.613,1.613,0,0,1-.982,1.756c-0.151.072-.312,0.125-0.445,0.178,0.619,0.885,1.221,1.747,1.85,2.645a1.056,1.056,0,0,1-1.52-.6,5.842,5.842,0,0,0-.839-1.322,1.622,1.622,0,0,0-.776-0.524c-0.848-.23-1.006-0.083-1.01.789,0,0.546,0,1.092,0,1.695H479.88v-5.923Zm1.039,2.6a10.079,10.079,0,0,0,1.894-.138,1.137,1.137,0,0,0,.658-0.827,1.009,1.009,0,0,0-.562-0.816,4.522,4.522,0,0,0-2.029.02,4.537,4.537,0,0,0-.079,1.6A0.88,0.88,0,0,0,480.919,299.434Z" transform="translate(-153 -148.031)"/>
</svg>
